<svg xmlns="http://www.w3.org/2000/svg" width="24" height="24" viewBox="0 0 64 64" fill="none">
  <path d="M30.667 56H16a5.333 5.333 0 01-5.333-5.333v-32A5.333 5.333 0 0116 13.333h32a5.333 5.333 0 015.333 5.334v16M42.667 8v10.667M21.333 8v10.667M10.667 29.333h42.666m-12 11.908h6.75a2.25 2.25 0 012.25 2.25v4.5a2.25 2.25 0 01-2.25 2.25h-4.5a2.25 2.25 0 00-2.25 2.25v4.5a2.25 2.25 0 002.25 2.25h6.75" stroke="currentColor" stroke-width="5.33333" stroke-linecap="round" stroke-linejoin="round"/>
</svg>
