<svg viewBox="0 0 16 16" fill="none" xmlns="http://www.w3.org/2000/svg">
  <path d="M7.999 1.333l.078.005.04.005.04.009.074.022c.051.02.1.044.145.075l.07.055.17.145a7.333 7.333 0 004.792 1.691l.228-.006a.667.667 0 01.67.478 8.666 8.666 0 01-6.139 10.833.666.666 0 01-.334 0 8.667 8.667 0 01-6.14-10.833.667.667 0 01.67-.478 7.333 7.333 0 005.02-1.685l.176-.15.064-.05a.662.662 0 01.145-.075l.075-.022a.648.648 0 01.079-.014l.077-.005zm2.473 4.862a.666.666 0 00-.943 0L7.333 8.39l-.862-.862-.062-.055a.667.667 0 00-.88.998l1.333 1.333.063.056a.666.666 0 00.88-.056l2.666-2.666.056-.063a.667.667 0 00-.056-.88z" fill="currentColor"/>
</svg>