<svg xmlns="http://www.w3.org/2000/svg" width="24" height="24" viewBox="0 0 24 24" fill="none">
  <path d="M17.6523 3.79888C19.1606 4.66973 20.4153 5.9194 21.2922 7.42418C22.169 8.92895 22.6377 10.6366 22.6518 12.3782C22.6658 14.1198 22.2248 15.8348 21.3724 17.3536C20.5199 18.8723 19.2856 20.1421 17.7916 21.0372C16.2976 21.9323 14.5957 22.4217 12.8544 22.4569C11.1132 22.4922 9.39289 22.072 7.8639 21.2381C6.3349 20.4042 5.05021 19.1854 4.13701 17.7024C3.22381 16.2194 2.71375 14.5236 2.65734 12.7829L2.65234 12.4589L2.65734 12.1349C2.71335 10.4079 3.21589 8.72484 4.11598 7.24987C5.01608 5.7749 6.283 4.55833 7.79324 3.71876C9.30347 2.87919 11.0055 2.44527 12.7333 2.45931C14.4612 2.47336 16.1559 2.93487 17.6523 3.79888ZM12.6523 6.45888C12.4074 6.45891 12.171 6.54883 11.988 6.71159C11.8049 6.87435 11.688 7.09863 11.6593 7.34188L11.6523 7.45888V12.4589L11.6613 12.5899C11.6841 12.7634 11.7521 12.9279 11.8583 13.0669L11.9453 13.1669L14.9453 16.1669L15.0393 16.2489C15.2147 16.3849 15.4304 16.4588 15.6523 16.4588C15.8743 16.4588 16.09 16.3849 16.2653 16.2489L16.3593 16.1659L16.4423 16.0719C16.5784 15.8965 16.6523 15.6808 16.6523 15.4589C16.6523 15.2369 16.5784 15.0212 16.4423 14.8459L16.3593 14.7519L13.6523 12.0439V7.45888L13.6453 7.34188C13.6167 7.09863 13.4998 6.87435 13.3167 6.71159C13.1337 6.54883 12.8973 6.45891 12.6523 6.45888Z" fill="currentColor"/>
</svg>
