<svg xmlns="http://www.w3.org/2000/svg" width="24" height="24" viewBox="0 0 24 24" fill="none">
  <path d="M18.432 21H7.92179L7.96326 19.6383C7.99417 18.6191 8.08337 16.8309 8.33729 14.7311C5.98046 14.6137 3.70228 13.557 2 11.6142L3.93624 9.85626C5.21325 11.3135 6.948 12.0719 8.72853 12.089C9.20936 9.37594 9.85764 7.25792 10.6577 5.78868C11.9551 3.4054 13.747 2.02458 15.5736 2.00029C16.8158 1.98475 17.8816 2.60407 18.5162 3.70172C19.9434 6.16983 18.1198 10.1319 14.2743 12.917C13.2426 13.6642 12.1276 14.1787 10.9868 14.4667C10.8138 15.7671 10.6906 17.0937 10.6174 18.3586H18.4324V21H18.432ZM15.6206 4.64165C15.6163 4.64165 15.6116 4.64165 15.6073 4.64165C14.9762 4.65001 13.8952 5.29083 12.9269 7.06873C12.3358 8.15483 11.8549 9.72881 11.484 11.5087C11.9261 11.3116 12.3573 11.0638 12.77 10.7647C15.9258 8.47903 16.7325 5.82373 16.2798 5.04112C16.1222 4.7683 15.9125 4.64085 15.6206 4.64085V4.64165Z" fill="currentColor"/>
</svg>
